<?xml version="1.0" encoding="UTF-8"?>
<svg width="192" height="192" viewBox="0 0 192 192" xmlns="http://www.w3.org/2000/svg">
  <rect width="192" height="192" fill="#101B28"/>
  <g transform="translate(53, 87) scale(0.375)">
    <g clipPath="url(#clip0_403_41729)">
      <path
        d="M43.5324 5.40149C35.4155 -2.91595 20.3105 -1.33387 9.7939 8.93045C-0.726574 19.1986 -2.66941 34.2629 5.44749 42.5804C13.5644 50.8978 28.6732 49.3196 39.1898 39.0514C49.7064 28.7832 51.6493 13.7189 43.5324 5.40149ZM25.494 38.1567H15.8566C15.9488 36.9394 16.2828 35.6876 16.7858 34.4434H25.6629C32.4053 34.4434 35.7342 31.0757 35.7342 24.1637V23.9065C35.7342 16.7794 32.6164 13.5385 25.9202 13.5385H20.3758V24.54C22.6527 21.7906 26.2389 18.9298 28.9803 17.7279V22.0824C25.1791 23.8757 21.808 27.0706 18.264 32.1932C14.7201 27.0706 11.3451 23.8757 7.54774 22.0824V17.7279C10.2892 18.9298 13.8715 21.7906 16.1484 24.54V9.82517H25.9202C35.1774 9.82517 40.1267 14.7327 40.1267 24.0754C40.1267 33.2492 35.0085 38.1567 25.494 38.1567Z"
        fill="#AFE7AD"
      />
      <path
        d="M72.9512 33.8346L88.9151 14.8081H73.2515V9.82617H95.8767V14.1476L80.0331 33.1745H95.9368V38.156H72.9512V33.8346Z"
        fill="white"
      />
      <path
        d="M132.026 0.716797V14.0864C129.989 11.0856 126.806 9.2219 122.843 9.2219C115.523 9.2219 110.059 15.1052 110.059 24.1078C110.059 33.292 115.586 38.7567 122.787 38.7567C126.806 38.7567 130.044 36.8931 132.026 33.9554V38.1566H137.664V0.716797H132.026ZM132.326 24.1078C132.326 29.7541 129.207 33.7737 124.288 33.7737C119.36 33.7737 116.186 30.4096 116.186 24.3526V23.9261C116.186 17.7427 119.423 14.2049 124.288 14.2049C129.262 14.2049 132.326 17.9876 132.326 23.626V24.1078Z"
        fill="white"
      />
      <path
        d="M212.621 9.22266C208.665 9.22266 205.364 11.0232 203.445 14.0241V9.82285H197.744V47.2626H203.501V34.0114C205.482 36.957 208.665 38.7575 212.565 38.7575C219.948 38.7575 225.404 32.9927 225.404 23.8716V23.8084C225.404 14.7427 219.948 9.22266 212.621 9.22266ZM219.285 24.0532C219.285 30.1734 216.048 33.7745 211.183 33.7745C206.201 33.7745 203.145 29.9918 203.145 24.3533V23.8716C203.145 18.17 206.201 14.2057 211.183 14.2057C216.048 14.2057 219.285 17.5067 219.285 23.6268V24.0532Z"
        fill="white"
      />
      <path d="M68.5922 9.82617H62.7109V38.156H68.5922V9.82617Z" fill="white" />
      <path
        d="M61.6798 0.720703C61.619 1.01082 61.582 1.31156 61.582 1.62506C61.582 3.89677 63.349 5.72691 65.6834 5.72691C67.9545 5.72691 69.7215 3.89681 69.7215 1.62506C69.7215 1.31156 69.6845 1.01082 69.6239 0.720703H61.6798Z"
        fill="white"
      />
      <path d="M106.477 9.82617H100.596V38.156H106.477V9.82617Z" fill="white" />
      <path
        d="M99.5646 0.720703C99.5038 1.01082 99.4668 1.31156 99.4668 1.62506C99.4668 3.89677 101.234 5.72691 103.568 5.72691C105.839 5.72691 107.606 3.89681 107.606 1.62506C107.606 1.31156 107.569 1.01082 107.509 0.720703H99.5646Z"
        fill="white"
      />
      <path
        d="M165.775 24.0489C165.775 15.4057 171.657 9.34375 179.999 9.34375C188.281 9.34375 194.162 15.4057 194.162 24.0489C194.162 32.5717 188.161 38.6337 179.879 38.6337C171.597 38.6337 165.775 32.6916 165.775 24.0489ZM188.221 24.229V23.9887C188.221 18.0467 185.1 14.2655 179.999 14.2655C174.898 14.2655 171.657 18.0467 171.657 23.9887V24.229C171.657 30.0507 174.778 33.6522 179.879 33.6522C185.04 33.6522 188.221 30.0507 188.221 24.229Z"
        fill="white"
      />
      <path
        d="M157.43 18.2918C157.43 19.1713 157.272 20.1849 156.887 21.3442H162.866C163.244 20.095 163.534 18.6833 163.534 17.4987C163.534 12.8315 160.604 9.22266 155.938 9.22266C152.203 9.22266 149.691 11.5917 148.023 14.7742V9.82285H142.322V38.1558H148.144V23.611C148.144 18.8587 150.087 14.2056 153.759 14.2056C156.001 14.2056 157.43 15.8253 157.43 18.2918Z"
        fill="white"
      />
    </g>
    <defs>
      <clipPath id="clip0_403_41729">
        <rect width="225" height="48" fill="white" transform="translate(0.5)" />
      </clipPath>
    </defs>
  </g>
</svg>
